<svg xmlns="http://www.w3.org/2000/svg" xmlns:xlink="http://www.w3.org/1999/xlink" version="1.1" id="Layer_1" x="0px" y="0px" width="100.0px" height="100px" viewBox="0 0 107 107" enable-background="new 0 0 107 107" xml:space="preserve">
<g>
	<path d="M101.494,49.502c0.064-0.864-0.469-1.671-1.306-1.941L55.912,33.276c0.016-0.274,0.024-0.549,0.024-0.826   c0-7.374-5.387-13.509-12.431-14.686c1.11-2.169,3.123-5.14,6.625-7.78c2.451-1.847,0.403-3.967-2.924-2.285   c-2.353,1.19-5.179,5.979-6.2,9.858c-7.508,0.019-13.726,5.622-14.715,12.867c-0.145,0.049-0.287,0.093-0.433,0.145   c-9.595,3.364-16.474,9.618-19.892,18.085c-0.046,0.113-0.06,0.249-0.052,0.397c-0.056,0.178-0.085,0.367-0.085,0.563v49.729   c0,1.046,0.848,1.893,1.893,1.893h91.886c1.045,0,1.893-0.847,1.893-1.893V49.615C101.5,49.578,101.497,49.54,101.494,49.502z    M41.042,21.343c6.125,0,11.107,4.982,11.107,11.107s-4.982,11.107-11.107,11.107S29.935,38.575,29.935,32.45   S34.918,21.343,41.042,21.343z M97.713,97.451H9.615V78.14h88.099V97.451z M97.713,72.082H9.615V56.59   c1.198,0.375,2.684,0.598,4.293,0.598c2.904,0,5.405-0.725,6.542-1.768c1.137,1.043,3.637,1.768,6.542,1.768   s5.405-0.725,6.542-1.768c1.137,1.043,3.638,1.768,6.542,1.768s5.405-0.725,6.542-1.768c1.137,1.043,3.638,1.768,6.542,1.768   s5.405-0.725,6.542-1.768c1.137,1.043,3.637,1.768,6.542,1.768s5.405-0.725,6.542-1.768c1.137,1.043,3.638,1.768,6.542,1.768   s5.405-0.725,6.542-1.768c1.137,1.043,3.637,1.768,6.542,1.768c2.1,0,3.988-0.379,5.303-0.983V72.082z"/>
	<ellipse transform="matrix(0.1789 0.9839 -0.9839 0.1789 66.6202 -19.8587)" cx="45.208" cy="29.983" rx="5.358" ry="4.923"/>
</g>
</svg>